{
	"asset":{
		"generator":"Khronos glTF Blender I/O v5.0.21",
		"version":"2.0"
	},
	"scene":0,
	"scenes":[
		{
			"name":"Scene",
			"nodes":[
				0,
				1,
				5,
				9,
				13,
				17,
				21,
				22,
				25,
				26,
				27
			]
		}
	],
	"nodes":[
		{
			"camera":0,
			"name":"Camera",
			"rotation":[
				-0.22598384320735931,
				0.3059944212436676,
				0.07501796633005142,
				0.9217759966850281
			],
			"translation":[
				7.358892440795898,
				4.958309650421143,
				6.9257917404174805
			]
		},
		{
			"mesh":0,
			"name":"Plane"
		},
		{
			"mesh":1,
			"name":"Cube",
			"scale":[
				0.531307578086853,
				0.531307578086853,
				0.69404137134552
			]
		},
		{
			"mesh":2,
			"name":"roof",
			"scale":[
				0.531307578086853,
				0.531307578086853,
				0.69404137134552
			]
		},
		{
			"name":"Empty",
			"scale":[
				0.531307578086853,
				0.531307578086853,
				0.69404137134552
			]
		},
		{
			"children":[
				2,
				3,
				4
			],
			"name":"house",
			"rotation":[
				0,
				0.21728232502937317,
				0,
				0.9761089086532593
			],
			"translation":[
				11.199995040893555,
				0.03980302810668945,
				36.555641174316406
			]
		},
		{
			"mesh":1,
			"name":"Cube",
			"scale":[
				0.531307578086853,
				0.531307578086853,
				0.69404137134552
			]
		},
		{
			"mesh":3,
			"name":"roof",
			"scale":[
				0.531307578086853,
				0.531307578086853,
				0.69404137134552
			]
		},
		{
			"name":"Empty",
			"scale":[
				0.531307578086853,
				0.531307578086853,
				0.69404137134552
			]
		},
		{
			"children":[
				6,
				7,
				8
			],
			"name":"house.001",
			"rotation":[
				0,
				-0.284932017326355,
				0,
				0.958547830581665
			],
			"translation":[
				-39.6173095703125,
				0.22623324394226074,
				-37.11406707763672
			]
		},
		{
			"mesh":1,
			"name":"Cube",
			"scale":[
				0.5313075184822083,
				0.531307578086853,
				0.69404137134552
			]
		},
		{
			"mesh":4,
			"name":"roof",
			"scale":[
				0.5313075184822083,
				0.531307578086853,
				0.69404137134552
			]
		},
		{
			"name":"Empty",
			"scale":[
				0.5313075184822083,
				0.531307578086853,
				0.69404137134552
			]
		},
		{
			"children":[
				10,
				11,
				12
			],
			"name":"house.002",
			"rotation":[
				0,
				-0.8559444546699524,
				0,
				0.5170677900314331
			],
			"translation":[
				41.5897216796875,
				0.22623324394226074,
				-36.28932189941406
			]
		},
		{
			"mesh":1,
			"name":"Cube",
			"scale":[
				0.531307578086853,
				0.531307578086853,
				0.69404137134552
			]
		},
		{
			"mesh":5,
			"name":"roof",
			"scale":[
				0.531307578086853,
				0.531307578086853,
				0.69404137134552
			]
		},
		{
			"name":"Empty",
			"scale":[
				0.531307578086853,
				0.531307578086853,
				0.69404137134552
			]
		},
		{
			"children":[
				14,
				15,
				16
			],
			"name":"house.003",
			"rotation":[
				0,
				-0.48013633489608765,
				0,
				0.8771938681602478
			],
			"translation":[
				4.767236709594727,
				0.03980207443237305,
				-12.735793113708496
			]
		},
		{
			"mesh":1,
			"name":"Cube",
			"scale":[
				0.5313076376914978,
				0.531307578086853,
				0.6940414309501648
			],
			"translation":[
				2.86102294921875e-06,
				0,
				3.337860107421875e-06
			]
		},
		{
			"mesh":6,
			"name":"roof",
			"scale":[
				0.5313076376914978,
				0.531307578086853,
				0.6940414309501648
			],
			"translation":[
				2.86102294921875e-06,
				0,
				3.337860107421875e-06
			]
		},
		{
			"name":"Empty",
			"scale":[
				0.5313076376914978,
				0.531307578086853,
				0.6940414309501648
			],
			"translation":[
				2.86102294921875e-06,
				0,
				3.337860107421875e-06
			]
		},
		{
			"children":[
				18,
				19,
				20
			],
			"name":"house.004",
			"rotation":[
				0,
				0.6474243402481079,
				0,
				0.7621297836303711
			],
			"translation":[
				-22.577096939086914,
				0.03980207443237305,
				31.47794532775879
			]
		},
		{
			"mesh":7,
			"name":"player",
			"translation":[
				1.6749591827392578,
				0,
				-0.6919092535972595
			]
		},
		{
			"mesh":8,
			"name":"Grid"
		},
		{
			"name":"B\u00e9zierCurve",
			"rotation":[
				0,
				0,
				-0.7071068286895752,
				0.7071068286895752
			],
			"scale":[
				0.5927239060401917,
				0.5927239060401917,
				0.5927239060401917
			],
			"translation":[
				0,
				0.6143776178359985,
				0
			]
		},
		{
			"children":[
				23,
				24
			],
			"name":"shrubs",
			"translation":[
				9.587464332580566,
				0,
				-4.485959529876709
			]
		},
		{
			"camera":1,
			"name":"Camera.001",
			"rotation":[
				-0.10648425668478012,
				0.8610627055168152,
				0.20175938308238983,
				0.4544505178928375
			],
			"translation":[
				19.887292861938477,
				10.938411712646484,
				-13.13963508605957
			]
		},
		{
			"camera":2,
			"name":"Camera.002",
			"rotation":[
				-0.04326467216014862,
				-0.9235881567001343,
				-0.10951973497867584,
				0.3648541271686554
			],
			"translation":[
				-22.045074462890625,
				8.348687171936035,
				-26.02906608581543
			]
		}
	],
	"cameras":[
		{
			"name":"Camera",
			"perspective":{
				"aspectRatio":1.7777777777777777,
				"yfov":0.39959652046304894,
				"zfar":100,
				"znear":0.10000000149011612
			},
			"type":"perspective"
		},
		{
			"name":"Camera.001",
			"perspective":{
				"aspectRatio":1.7777777777777777,
				"yfov":0.39959652046304894,
				"zfar":1000,
				"znear":0.10000000149011612
			},
			"type":"perspective"
		},
		{
			"name":"Camera.002",
			"perspective":{
				"aspectRatio":1.7777777777777777,
				"yfov":0.39959652046304894,
				"zfar":1000,
				"znear":0.10000000149011612
			},
			"type":"perspective"
		}
	],
	"materials":[
		{
			"doubleSided":true,
			"name":"Material.001",
			"normalTexture":{
				"index":0
			},
			"pbrMetallicRoughness":{
				"baseColorTexture":{
					"index":1
				},
				"metallicRoughnessTexture":{
					"index":2
				}
			}
		},
		{
			"doubleSided":true,
			"name":"Material.002",
			"pbrMetallicRoughness":{
				"baseColorFactor":[
					0.2301797866821289,
					0.14922606945037842,
					0.05528499186038971,
					1
				],
				"metallicFactor":0,
				"roughnessFactor":0.5
			}
		},
		{
			"doubleSided":true,
			"name":"Material.003",
			"pbrMetallicRoughness":{
				"baseColorFactor":[
					0.5107792615890503,
					0.3372456729412079,
					0,
					1
				],
				"metallicFactor":0,
				"roughnessFactor":0.5
			}
		},
		{
			"doubleSided":true,
			"name":"Material",
			"pbrMetallicRoughness":{
				"baseColorTexture":{
					"index":3
				},
				"metallicFactor":0,
				"metallicRoughnessTexture":{
					"index":4
				}
			}
		}
	],
	"meshes":[
		{
			"name":"Plane",
			"primitives":[
				{
					"attributes":{
						"POSITION":0,
						"NORMAL":1,
						"TEXCOORD_0":2
					},
					"indices":3,
					"material":0
				}
			]
		},
		{
			"name":"Cube.001",
			"primitives":[
				{
					"attributes":{
						"POSITION":4,
						"NORMAL":5,
						"TEXCOORD_0":6
					},
					"indices":7,
					"material":1
				}
			]
		},
		{
			"name":"Cube.003",
			"primitives":[
				{
					"attributes":{
						"POSITION":8,
						"NORMAL":9,
						"TEXCOORD_0":10
					},
					"indices":11,
					"material":2
				}
			]
		},
		{
			"name":"Cube.003",
			"primitives":[
				{
					"attributes":{
						"POSITION":12,
						"NORMAL":13,
						"TEXCOORD_0":14
					},
					"indices":11,
					"material":2
				}
			]
		},
		{
			"name":"Cube.003",
			"primitives":[
				{
					"attributes":{
						"POSITION":15,
						"NORMAL":16,
						"TEXCOORD_0":17
					},
					"indices":11,
					"material":2
				}
			]
		},
		{
			"name":"Cube.003",
			"primitives":[
				{
					"attributes":{
						"POSITION":18,
						"NORMAL":19,
						"TEXCOORD_0":20
					},
					"indices":11,
					"material":2
				}
			]
		},
		{
			"name":"Cube.003",
			"primitives":[
				{
					"attributes":{
						"POSITION":21,
						"NORMAL":22,
						"TEXCOORD_0":23
					},
					"indices":11,
					"material":2
				}
			]
		},
		{
			"name":"Cube.004",
			"primitives":[
				{
					"attributes":{
						"POSITION":24,
						"NORMAL":25,
						"TEXCOORD_0":26
					},
					"indices":27
				}
			]
		},
		{
			"name":"Grid",
			"primitives":[
				{
					"attributes":{
						"POSITION":28,
						"NORMAL":29,
						"TEXCOORD_0":30
					},
					"indices":31,
					"material":3
				}
			]
		}
	],
	"textures":[
		{
			"sampler":0,
			"source":0
		},
		{
			"sampler":0,
			"source":0
		},
		{
			"sampler":0,
			"source":1
		},
		{
			"sampler":0,
			"source":2
		},
		{
			"sampler":0,
			"source":3
		}
	],
	"images":[
		{
			"mimeType":"image/jpeg",
			"name":"a959431cb3cf5f04c7e22bac4c2ef7e7-206350783",
			"uri":"tex/a959431cb3cf5f04c7e22bac4c2ef7e7-206350783.jpg"
		},
		{
			"mimeType":"image/png",
			"name":"a959431cb3cf5f04c7e22bac4c2ef7e7-206350783",
			"uri":"tex/a959431cb3cf5f04c7e22bac4c2ef7e7-206350783.png"
		},
		{
			"mimeType":"image/jpeg",
			"name":"shrub tex",
			"uri":"tex/shrub%20tex.jpg"
		},
		{
			"mimeType":"image/png",
			"name":"shrub tex",
			"uri":"tex/shrub%20tex.png"
		}
	],
	"accessors":[
		{
			"bufferView":0,
			"componentType":5126,
			"count":4,
			"max":[
				50,
				0,
				50
			],
			"min":[
				-50,
				0,
				-50
			],
			"type":"VEC3"
		},
		{
			"bufferView":1,
			"componentType":5126,
			"count":4,
			"type":"VEC3"
		},
		{
			"bufferView":2,
			"componentType":5126,
			"count":4,
			"type":"VEC2"
		},
		{
			"bufferView":3,
			"componentType":5123,
			"count":6,
			"type":"SCALAR"
		},
		{
			"bufferView":4,
			"componentType":5126,
			"count":90,
			"max":[
				3.9752650260925293,
				8.17276382446289,
				3.9752650260925293
			],
			"min":[
				-3.9752650260925293,
				0,
				-3.9752650260925293
			],
			"type":"VEC3"
		},
		{
			"bufferView":5,
			"componentType":5126,
			"count":90,
			"type":"VEC3"
		},
		{
			"bufferView":6,
			"componentType":5126,
			"count":90,
			"type":"VEC2"
		},
		{
			"bufferView":7,
			"componentType":5123,
			"count":204,
			"type":"SCALAR"
		},
		{
			"bufferView":8,
			"componentType":5126,
			"count":48,
			"max":[
				6.967833042144775,
				12.182598114013672,
				5.688567161560059
			],
			"min":[
				-7.002696514129639,
				6.485391139984131,
				-5.688567161560059
			],
			"type":"VEC3"
		},
		{
			"bufferView":9,
			"componentType":5126,
			"count":48,
			"type":"VEC3"
		},
		{
			"bufferView":10,
			"componentType":5126,
			"count":48,
			"type":"VEC2"
		},
		{
			"bufferView":11,
			"componentType":5123,
			"count":72,
			"type":"SCALAR"
		},
		{
			"bufferView":12,
			"componentType":5126,
			"count":48,
			"max":[
				6.967833042144775,
				12.182598114013672,
				5.688567161560059
			],
			"min":[
				-7.002696514129639,
				6.485391139984131,
				-5.688567161560059
			],
			"type":"VEC3"
		},
		{
			"bufferView":13,
			"componentType":5126,
			"count":48,
			"type":"VEC3"
		},
		{
			"bufferView":14,
			"componentType":5126,
			"count":48,
			"type":"VEC2"
		},
		{
			"bufferView":15,
			"componentType":5126,
			"count":48,
			"max":[
				6.967833042144775,
				12.182598114013672,
				5.688567161560059
			],
			"min":[
				-7.002696514129639,
				6.485391139984131,
				-5.688567161560059
			],
			"type":"VEC3"
		},
		{
			"bufferView":16,
			"componentType":5126,
			"count":48,
			"type":"VEC3"
		},
		{
			"bufferView":17,
			"componentType":5126,
			"count":48,
			"type":"VEC2"
		},
		{
			"bufferView":18,
			"componentType":5126,
			"count":48,
			"max":[
				6.967833042144775,
				12.182598114013672,
				5.688567161560059
			],
			"min":[
				-7.002696514129639,
				6.485391139984131,
				-5.688567161560059
			],
			"type":"VEC3"
		},
		{
			"bufferView":19,
			"componentType":5126,
			"count":48,
			"type":"VEC3"
		},
		{
			"bufferView":20,
			"componentType":5126,
			"count":48,
			"type":"VEC2"
		},
		{
			"bufferView":21,
			"componentType":5126,
			"count":48,
			"max":[
				6.967833042144775,
				12.182598114013672,
				5.688567161560059
			],
			"min":[
				-7.002696514129639,
				6.485391139984131,
				-5.688567161560059
			],
			"type":"VEC3"
		},
		{
			"bufferView":22,
			"componentType":5126,
			"count":48,
			"type":"VEC3"
		},
		{
			"bufferView":23,
			"componentType":5126,
			"count":48,
			"type":"VEC2"
		},
		{
			"bufferView":24,
			"componentType":5126,
			"count":24,
			"max":[
				0.5,
				2.0163683891296387,
				0.5
			],
			"min":[
				-0.5,
				0.01636826992034912,
				-0.5
			],
			"type":"VEC3"
		},
		{
			"bufferView":25,
			"componentType":5126,
			"count":24,
			"type":"VEC3"
		},
		{
			"bufferView":26,
			"componentType":5126,
			"count":24,
			"type":"VEC2"
		},
		{
			"bufferView":27,
			"componentType":5123,
			"count":36,
			"type":"SCALAR"
		},
		{
			"bufferView":28,
			"componentType":5126,
			"count":14148,
			"max":[
				1.4673672914505005,
				2.3964242935180664,
				1.2832633256912231
			],
			"min":[
				-1.2304757833480835,
				0.29969364404678345,
				-1.5274078845977783
			],
			"type":"VEC3"
		},
		{
			"bufferView":29,
			"componentType":5126,
			"count":14148,
			"type":"VEC3"
		},
		{
			"bufferView":30,
			"componentType":5126,
			"count":14148,
			"type":"VEC2"
		},
		{
			"bufferView":31,
			"componentType":5123,
			"count":66600,
			"type":"SCALAR"
		}
	],
	"bufferViews":[
		{
			"buffer":0,
			"byteLength":48,
			"byteOffset":0,
			"target":34962
		},
		{
			"buffer":0,
			"byteLength":48,
			"byteOffset":48,
			"target":34962
		},
		{
			"buffer":0,
			"byteLength":32,
			"byteOffset":96,
			"target":34962
		},
		{
			"buffer":0,
			"byteLength":12,
			"byteOffset":128,
			"target":34963
		},
		{
			"buffer":0,
			"byteLength":1080,
			"byteOffset":140,
			"target":34962
		},
		{
			"buffer":0,
			"byteLength":1080,
			"byteOffset":1220,
			"target":34962
		},
		{
			"buffer":0,
			"byteLength":720,
			"byteOffset":2300,
			"target":34962
		},
		{
			"buffer":0,
			"byteLength":408,
			"byteOffset":3020,
			"target":34963
		},
		{
			"buffer":0,
			"byteLength":576,
			"byteOffset":3428,
			"target":34962
		},
		{
			"buffer":0,
			"byteLength":576,
			"byteOffset":4004,
			"target":34962
		},
		{
			"buffer":0,
			"byteLength":384,
			"byteOffset":4580,
			"target":34962
		},
		{
			"buffer":0,
			"byteLength":144,
			"byteOffset":4964,
			"target":34963
		},
		{
			"buffer":0,
			"byteLength":576,
			"byteOffset":5108,
			"target":34962
		},
		{
			"buffer":0,
			"byteLength":576,
			"byteOffset":5684,
			"target":34962
		},
		{
			"buffer":0,
			"byteLength":384,
			"byteOffset":6260,
			"target":34962
		},
		{
			"buffer":0,
			"byteLength":576,
			"byteOffset":6644,
			"target":34962
		},
		{
			"buffer":0,
			"byteLength":576,
			"byteOffset":7220,
			"target":34962
		},
		{
			"buffer":0,
			"byteLength":384,
			"byteOffset":7796,
			"target":34962
		},
		{
			"buffer":0,
			"byteLength":576,
			"byteOffset":8180,
			"target":34962
		},
		{
			"buffer":0,
			"byteLength":576,
			"byteOffset":8756,
			"target":34962
		},
		{
			"buffer":0,
			"byteLength":384,
			"byteOffset":9332,
			"target":34962
		},
		{
			"buffer":0,
			"byteLength":576,
			"byteOffset":9716,
			"target":34962
		},
		{
			"buffer":0,
			"byteLength":576,
			"byteOffset":10292,
			"target":34962
		},
		{
			"buffer":0,
			"byteLength":384,
			"byteOffset":10868,
			"target":34962
		},
		{
			"buffer":0,
			"byteLength":288,
			"byteOffset":11252,
			"target":34962
		},
		{
			"buffer":0,
			"byteLength":288,
			"byteOffset":11540,
			"target":34962
		},
		{
			"buffer":0,
			"byteLength":192,
			"byteOffset":11828,
			"target":34962
		},
		{
			"buffer":0,
			"byteLength":72,
			"byteOffset":12020,
			"target":34963
		},
		{
			"buffer":0,
			"byteLength":169776,
			"byteOffset":12092,
			"target":34962
		},
		{
			"buffer":0,
			"byteLength":169776,
			"byteOffset":181868,
			"target":34962
		},
		{
			"buffer":0,
			"byteLength":113184,
			"byteOffset":351644,
			"target":34962
		},
		{
			"buffer":0,
			"byteLength":133200,
			"byteOffset":464828,
			"target":34963
		}
	],
	"samplers":[
		{
			"magFilter":9729,
			"minFilter":9987
		}
	],
	"buffers":[
		{
			"byteLength":598028,
			"uri":"scene.bin"
		}
	]
}
